<?xml version="1.0" encoding="utf-8"?>
<!-- Generator: Adobe Illustrator 24.0.2, SVG Export Plug-In . SVG Version: 6.00 Build 0)  -->
<svg version="1.1" id="Layer_1" xmlns="http://www.w3.org/2000/svg" xmlns:xlink="http://www.w3.org/1999/xlink" x="0px" y="0px"
	 viewBox="0 0 100 64.17" style="enable-background:new 0 0 100 64.17;" xml:space="preserve">
<style type="text/css">
	.st0{fill:#FFFFFF;}
</style>
<g>
	<g>
		<path class="st0" d="M95.37,37.94c-1.52,0-2.7,1.2-2.7,2.72c0,1.46,1.2,2.68,2.7,2.68c1.46,0,2.68-1.22,2.68-2.68
			C98.05,39.12,96.83,37.94,95.37,37.94z"/>
		<path class="st0" d="M36.08,27.69c-0.82-0.82-1.76-1.46-2.86-1.92c-1.08-0.48-2.26-0.72-3.5-0.72s-2.42,0.24-3.5,0.72
			c-1.08,0.48-2.04,1.12-2.86,1.92c-0.82,0.8-1.46,1.76-1.94,2.86c-0.48,1.08-0.72,2.26-0.72,3.5s0.24,2.42,0.72,3.52
			c0.48,1.1,1.12,2.06,1.94,2.86c0.82,0.8,1.76,1.46,2.86,1.92c1.08,0.48,2.26,0.7,3.5,0.7c1.44,0,2.72-0.28,3.86-0.86
			c1.14-0.56,2.1-1.3,2.88-2.22c0.16-0.16,0.24-0.32,0.22-0.48s-0.08-0.3-0.2-0.4c-0.06-0.1-0.14-0.18-0.24-0.2
			c-0.2-0.06-0.4,0-0.6,0.18c-0.32,0.42-0.72,0.82-1.14,1.16c-0.44,0.34-0.9,0.62-1.42,0.88c-0.52,0.24-1.06,0.42-1.62,0.56
			c-0.56,0.14-1.14,0.2-1.72,0.2c-1.02,0-1.98-0.18-2.9-0.56c-0.9-0.38-1.7-0.9-2.4-1.54c-0.68-0.66-1.24-1.42-1.66-2.3
			c-0.42-0.88-0.66-1.82-0.72-2.84h16.11c0.18,0,0.32-0.06,0.42-0.18c0.1-0.12,0.16-0.26,0.16-0.42c0-1.24-0.24-2.4-0.72-3.48
			C37.55,29.45,36.91,28.49,36.08,27.69z M22.01,33.57c0.06-1.02,0.28-1.98,0.7-2.86c0.42-0.88,0.96-1.66,1.66-2.34
			c0.7-0.66,1.5-1.2,2.42-1.58s1.9-0.58,2.94-0.58c1.04,0,2.02,0.2,2.94,0.58c0.92,0.38,1.72,0.9,2.42,1.58
			c0.7,0.66,1.26,1.44,1.68,2.34c0.42,0.9,0.66,1.86,0.72,2.88L22.01,33.57L22.01,33.57z"/>
		<path class="st0" d="M78.36,22.75c0,1.36-0.14,2.66-0.4,3.9c-0.28,1.24-0.7,2.34-1.28,3.3c-0.58,0.96-1.34,1.72-2.28,2.3
			c-0.94,0.58-2.06,0.88-3.38,0.88c-1.32,0-2.44-0.28-3.36-0.84c-0.92-0.56-1.66-1.32-2.24-2.28c-0.58-0.96-1-2.06-1.28-3.32
			c-0.28-1.26-0.4-2.58-0.4-3.94V1.47H52.36v21.28c0,2.76,0.36,5.38,1.04,7.85c0.7,2.46,1.8,4.62,3.32,6.5
			c1.52,1.86,3.44,3.36,5.8,4.46c2.36,1.1,5.18,1.66,8.49,1.66c3.18,0,5.96-0.52,8.31-1.58c2.36-1.04,4.3-2.48,5.86-4.32
			c1.56-1.82,2.7-3.98,3.44-6.5c0.74-2.5,1.1-5.2,1.1-8.07V1.47H78.36L78.36,22.75L78.36,22.75z"/>
		<path class="st0" d="M2.26,29.51c0.38-0.62,0.84-1.2,1.38-1.74c1.78-1.78,3.92-2.66,6.42-2.66s4.64,0.88,6.42,2.66
			c1.78,1.78,2.66,3.92,2.66,6.42c-0.02,2.5-0.9,4.64-2.66,6.42c-1.78,1.78-3.92,2.66-6.42,2.66s-4.64-0.88-6.42-2.66
			S0.98,36.7,1,34.19V16.3h1.28C2.26,16.3,2.26,29.51,2.26,29.51z M4.54,28.67c-1.52,1.52-2.28,3.36-2.28,5.52
			c0,2.16,0.76,3.98,2.28,5.52C6.06,41.24,7.9,42,10.07,42s3.98-0.76,5.52-2.28c1.52-1.52,2.28-3.36,2.28-5.52
			c0-2.16-0.76-3.98-2.28-5.52c-1.52-1.52-3.36-2.28-5.52-2.28S6.06,27.15,4.54,28.67z"/>
	</g>
</g>
<g>
	<g>
		<path class="st0" d="M9.53,61.17h0.14v0.09h-1.9v-0.08H7.9c0.1,0,0.18-0.04,0.25-0.12c0.07-0.08,0.1-0.17,0.09-0.26l-0.39-4.4
			l-1.84,4.08c-0.16,0.36-0.26,0.65-0.3,0.89H5.63l-2.24-4.85l-0.38,4.27C3,60.9,3.03,60.99,3.1,61.07
			c0.07,0.08,0.15,0.12,0.25,0.12h0.14v0.08h-1.7v-0.09h0.14c0.16,0,0.3-0.05,0.42-0.15c0.12-0.1,0.19-0.23,0.21-0.4l0.66-5.6h0.09
			l2.44,5.27l2.39-5.27h0.08l0.67,5.6c0.03,0.23,0.15,0.4,0.35,0.49C9.33,61.15,9.42,61.17,9.53,61.17z"/>
		<path class="st0" d="M17.75,61.17h0.07v0.09h-1.79v-0.09h0.07c0.11,0,0.2-0.04,0.25-0.11c0.06-0.08,0.09-0.15,0.09-0.21
			c0-0.07-0.01-0.13-0.03-0.2l-0.48-1.16h-2.21l-0.48,1.14c-0.03,0.08-0.04,0.15-0.04,0.21c0,0.07,0.03,0.14,0.09,0.22
			c0.06,0.08,0.15,0.12,0.26,0.12h0.07v0.09h-1.67v-0.09h0.07c0.12,0,0.25-0.04,0.37-0.13c0.13-0.08,0.23-0.21,0.31-0.38
			c1.28-2.73,1.94-4.16,1.99-4.28c0.1-0.25,0.15-0.41,0.16-0.49h0.08l2.16,4.77C17.25,61,17.47,61.17,17.75,61.17z M13.83,59.22
			h1.99l-0.98-2.4L13.83,59.22z"/>
		<path class="st0" d="M26.32,56.1c-0.13,0-0.24,0.04-0.33,0.13c-0.09,0.08-0.14,0.19-0.15,0.31v3.72c0,0.34,0.02,0.66,0.06,0.96
			l0.02,0.16h-0.08l-4.55-4.31v3.65c0,0.13,0.05,0.24,0.14,0.32c0.09,0.09,0.21,0.13,0.34,0.13h0.15v0.09h-1.65v-0.09h0.15
			c0.13,0,0.25-0.04,0.34-0.13c0.09-0.09,0.14-0.2,0.14-0.32v-3.74c0-0.36-0.02-0.67-0.06-0.95l-0.02-0.14l0.1,0.01l4.54,4.28v-3.63
			c-0.01-0.12-0.06-0.23-0.16-0.31c-0.09-0.08-0.2-0.13-0.33-0.13h-0.15v-0.09h1.65v0.09H26.32z"/>
		<path class="st0" d="M34.77,56.1h-0.13c-0.16,0-0.28,0.06-0.36,0.18c-0.04,0.05-0.06,0.11-0.06,0.18v2.95
			c0,0.61-0.19,1.09-0.58,1.44s-0.92,0.53-1.6,0.53c-0.68,0-1.21-0.17-1.6-0.52c-0.39-0.35-0.59-0.83-0.59-1.43v-2.95
			c0-0.1-0.04-0.19-0.12-0.27c-0.08-0.07-0.18-0.11-0.3-0.11h-0.13v-0.09h1.66v0.09h-0.13c-0.12,0-0.22,0.04-0.3,0.11
			c-0.08,0.07-0.12,0.16-0.12,0.27v2.84c0,0.57,0.14,1.01,0.43,1.34c0.29,0.33,0.7,0.49,1.22,0.49s0.95-0.15,1.27-0.46
			c0.32-0.31,0.48-0.73,0.48-1.27v-2.94c-0.01-0.11-0.05-0.2-0.13-0.27c-0.08-0.07-0.18-0.11-0.29-0.11h-0.13v-0.09h1.5V56.1z"/>
		<path class="st0" d="M41.22,56.73c0-0.2-0.08-0.33-0.25-0.41c-0.06-0.02-0.12-0.04-0.18-0.04h-1.84v2.22h1.52
			c0.12,0,0.2-0.04,0.26-0.1c0.06-0.07,0.09-0.16,0.09-0.26v-0.11h0.1v1.22h-0.1v-0.11c0-0.14-0.05-0.24-0.14-0.31
			c-0.05-0.04-0.12-0.05-0.19-0.06h-1.54v1.93c0.01,0.16,0.08,0.29,0.21,0.38c0.09,0.06,0.19,0.09,0.31,0.09h0.12v0.09h-1.83v-0.09
			h0.12c0.14,0,0.26-0.04,0.36-0.13c0.1-0.09,0.15-0.2,0.16-0.33v-4.15c-0.01-0.18-0.09-0.31-0.25-0.39
			c-0.08-0.04-0.17-0.06-0.26-0.06h-0.12v-0.09h1.19h1.39c0.17,0,0.36-0.01,0.56-0.04c0.2-0.03,0.35-0.06,0.43-0.1v1l-0.1-0.01
			V56.73z"/>
		<path class="st0" d="M49.15,61.17h0.07v0.09h-1.79v-0.09h0.07c0.11,0,0.2-0.04,0.25-0.11c0.06-0.08,0.09-0.15,0.09-0.21
			c0-0.07-0.01-0.13-0.03-0.2l-0.48-1.16h-2.21l-0.48,1.14c-0.03,0.08-0.04,0.15-0.04,0.21c0,0.07,0.03,0.14,0.09,0.22
			c0.06,0.08,0.15,0.12,0.26,0.12H45v0.09h-1.67v-0.09h0.07c0.12,0,0.25-0.04,0.37-0.13c0.13-0.08,0.23-0.21,0.31-0.38
			c1.28-2.73,1.94-4.16,1.99-4.28c0.1-0.25,0.15-0.41,0.16-0.49h0.08l2.16,4.77C48.64,61,48.87,61.17,49.15,61.17z M45.22,59.22
			h1.99l-0.98-2.4L45.22,59.22z"/>
		<path class="st0" d="M53.54,61.17h0.1v0.09h-1.79v-0.09h0.11c0.14,0,0.26-0.05,0.36-0.14c0.1-0.09,0.15-0.2,0.16-0.33v-4.13
			c-0.01-0.13-0.06-0.24-0.16-0.33c-0.1-0.09-0.22-0.14-0.36-0.14h-0.11v-0.09h1.79v0.09h-0.11c-0.19,0-0.33,0.08-0.44,0.23
			c-0.05,0.07-0.07,0.15-0.07,0.24v4.14c0,0.13,0.05,0.24,0.15,0.33C53.28,61.13,53.4,61.17,53.54,61.17z M56.86,61.26h-0.32
			c-0.57,0-1-0.17-1.29-0.5l-1.92-2.11l1.88-2.21c0.06-0.08,0.07-0.16,0.03-0.23c-0.04-0.07-0.12-0.11-0.22-0.11h-0.08v-0.09h1.78
			v0.09h-0.04c-0.36,0-0.64,0.11-0.85,0.31l-1.91,2.04l2.17,2.36c0.11,0.13,0.21,0.22,0.32,0.27c0.11,0.05,0.26,0.08,0.44,0.09
			V61.26z"/>
		<path class="st0" d="M61.82,56.27v4.44c0.01,0.18,0.09,0.31,0.26,0.4c0.08,0.04,0.16,0.06,0.25,0.06h0.1v0.09h-1.8v-0.09h0.11
			c0.14,0,0.26-0.05,0.36-0.14c0.1-0.09,0.15-0.2,0.16-0.33v-4.43h-1.58c-0.13,0-0.24,0.04-0.32,0.13
			c-0.08,0.09-0.12,0.19-0.12,0.32v0.14h-0.1v-0.99c0.12,0.05,0.28,0.08,0.49,0.11s0.37,0.04,0.48,0.04h2.85
			c0.42,0,0.75-0.05,0.98-0.14v0.99h-0.1v-0.14c0-0.12-0.04-0.23-0.12-0.32c-0.08-0.09-0.19-0.13-0.31-0.13H61.82z"/>
		<path class="st0" d="M72.05,56.1h-0.13c-0.16,0-0.28,0.06-0.36,0.18c-0.04,0.05-0.06,0.11-0.06,0.18v2.95
			c0,0.61-0.19,1.09-0.58,1.44s-0.92,0.53-1.6,0.53s-1.21-0.17-1.6-0.52s-0.59-0.83-0.59-1.43v-2.95c0-0.1-0.04-0.19-0.12-0.27
			c-0.08-0.07-0.18-0.11-0.3-0.11h-0.13v-0.09h1.66v0.09h-0.13c-0.12,0-0.22,0.04-0.3,0.11c-0.08,0.07-0.12,0.16-0.12,0.27v2.84
			c0,0.57,0.14,1.01,0.43,1.34c0.29,0.33,0.7,0.49,1.22,0.49c0.53,0,0.95-0.15,1.27-0.46c0.32-0.31,0.48-0.73,0.48-1.27v-2.94
			c-0.01-0.11-0.05-0.2-0.13-0.27c-0.08-0.07-0.18-0.11-0.29-0.11h-0.13v-0.09h1.5V56.1z"/>
		<path class="st0" d="M76.66,56.29H76.2v4.42c0.01,0.18,0.09,0.32,0.25,0.41c0.08,0.04,0.16,0.06,0.25,0.06h0.11l0.01,0.09h-1.79
			v-0.09h0.12c0.13,0,0.25-0.04,0.34-0.13c0.1-0.09,0.14-0.2,0.14-0.33v-4.15c0-0.13-0.05-0.24-0.14-0.32
			c-0.1-0.09-0.21-0.13-0.34-0.13h-0.12v-0.09h2.19c0.55,0,0.98,0.13,1.3,0.38c0.32,0.25,0.48,0.58,0.48,0.99s-0.13,0.75-0.38,1.02
			c-0.26,0.27-0.58,0.43-0.98,0.47c0.19,0.08,0.41,0.31,0.67,0.68c-0.01,0,0.09,0.13,0.3,0.38c0.21,0.26,0.37,0.46,0.5,0.6
			c0.13,0.14,0.23,0.25,0.31,0.33c0.22,0.2,0.46,0.31,0.74,0.31v0.09h-0.27c-0.46,0-0.82-0.09-1.08-0.27
			c-0.2-0.13-0.38-0.3-0.54-0.5c-0.04-0.05-0.18-0.25-0.44-0.62c-0.26-0.36-0.4-0.56-0.42-0.58c-0.31-0.39-0.61-0.59-0.88-0.59
			v-0.09c0.68,0,1.09-0.03,1.23-0.1c0.19-0.1,0.32-0.2,0.39-0.31c0.15-0.23,0.22-0.49,0.22-0.77c0-0.36-0.1-0.63-0.31-0.82
			s-0.49-0.3-0.85-0.31C77.04,56.29,76.86,56.29,76.66,56.29z"/>
		<path class="st0" d="M82.82,61.17c0.14,0,0.26-0.04,0.35-0.13c0.1-0.09,0.15-0.2,0.15-0.33v-4.15c0-0.13-0.05-0.24-0.15-0.32
			c-0.1-0.09-0.22-0.13-0.36-0.13h-0.12v-0.09h2.55c0.24,0,0.45-0.02,0.63-0.05s0.3-0.06,0.35-0.09v1l-0.1-0.01v-0.13
			c0-0.12-0.04-0.23-0.12-0.32c-0.08-0.09-0.19-0.13-0.31-0.13h-1.82v2.22h1.5c0.12,0,0.21-0.04,0.27-0.1
			c0.06-0.07,0.09-0.16,0.09-0.26v-0.11h0.1v1.22h-0.1v-0.11c0-0.16-0.06-0.27-0.18-0.33c-0.05-0.02-0.1-0.03-0.15-0.03h-1.52v2.22
			h1.37c0.27,0,0.49-0.05,0.68-0.14c0.18-0.09,0.32-0.2,0.42-0.33s0.19-0.3,0.29-0.51h0.09l-0.48,1.25h-3.55v-0.09H82.82z"/>
		<path class="st0" d="M95.53,56.1c-0.13,0-0.24,0.04-0.33,0.13c-0.09,0.08-0.14,0.19-0.15,0.31v3.72c0,0.34,0.02,0.66,0.06,0.96
			l0.02,0.16h-0.08l-4.55-4.31v3.65c0,0.13,0.05,0.24,0.14,0.32c0.09,0.09,0.21,0.13,0.34,0.13h0.15v0.09h-1.65v-0.09h0.15
			c0.13,0,0.25-0.04,0.34-0.13c0.09-0.09,0.14-0.2,0.14-0.32v-3.74c0-0.36-0.02-0.67-0.06-0.95l-0.02-0.14l0.1,0.01l4.54,4.28v-3.63
			c-0.01-0.12-0.06-0.23-0.16-0.31c-0.09-0.08-0.2-0.13-0.33-0.13h-0.15v-0.09h1.65v0.09H95.53z"/>
	</g>
</g>
</svg>
